<svg xmlns="http://www.w3.org/2000/svg" xmlns:xlink="http://www.w3.org/1999/xlink" version="1.1" x="0px" y="0px" viewBox="0 0 512 640" style="enable-background:new 0 0 512 512;" xml:space="preserve"><path d="M433.384,470.149l-7.072-25.437l-6.505-23.419l-6.005-21.634c-0.834-2.952-3.519-5.004-6.589-5.004h-8.78  c-6.247-3.923-36.884-25.359-52.569-77.295c-6.153-20.418-16.794-33.234-28.506-41.297c0.789-0.372,1.527-0.865,2.135-1.52  c1.284-1.401,1.935-3.269,1.785-5.171l-2.535-32.259c-0.267-3.553-3.236-6.297-6.805-6.297h-0.949L275.368,91.751  c0.311-0.781,0.508-1.621,0.508-2.512v-21.15c0-3.77-3.061-6.83-6.83-6.83h-7.581v-21.25c0-3.77-3.061-6.83-6.83-6.83  s-6.83,3.061-6.83,6.83v21.25h-7.581c-3.77,0-6.83,3.061-6.83,6.83v21.15c0,1.179,0.377,2.234,0.905,3.203L198.21,231.169  c-2.683,0.763-4.742,3.038-4.975,5.945l-2.535,32.259c-0.15,1.902,0.5,3.77,1.793,5.171c0.864,0.937,1.998,1.48,3.204,1.82  c-11.512,8.05-22.021,20.769-28.123,40.997c-15.684,51.936-46.328,73.372-52.571,77.295h-10.237c-3.069,0-5.763,2.052-6.58,5.004  l-6.005,21.634l-6.505,23.419c-0.002,0.006,0.001,0.014-0.001,0.02l-7.055,25.434c-0.575,2.052-0.15,4.253,1.143,5.955  c1.293,1.701,3.303,2.702,5.438,2.702h341.595c2.135,0,4.153-1.001,5.438-2.702C433.534,474.419,433.951,472.217,433.384,470.149z   M103.957,429.967h304.074l2.702,9.741H101.246L103.957,429.967z M247.053,74.919h15.162v7.489h-15.162V74.919z M247.47,96.069  h14.903l34.502,134.748h-84.45L247.47,96.069z M241.949,263.085l-37.046-0.008l1.459-18.598h99.254l1.468,18.598h-36.512  c-0.083,0-0.153,0.045-0.236,0.048c-0.836,0.024-1.694,0.043-2.442,0.085c0,0-17.614-0.017-25.854-0.125c-0.028,0-0.061,0-0.09,0  C241.95,263.085,241.95,263.085,241.949,263.085z M180.651,321.298c11.267-37.346,39.706-44.485,61.207-44.552  c8.29,0.133,26.021,0.15,26.404,0.117c18.656-1.051,52.15,3.386,64.526,44.435c11.397,37.755,30.031,60.704,43.64,73.358h-72.446  v-50.824c0-13.277-7.523-25.754-20.633-34.277l-23.544-15.245c-2.268-1.468-5.246-1.434-7.523,0.067l-22.768,15.295  c-12.61,8.49-19.841,20.783-19.841,33.76v51.224h-72.665C150.619,382.002,169.258,359.052,180.651,321.298z M223.334,394.656  v-51.224c0-8.34,5.029-16.513,13.803-22.418l19.023-12.777l19.749,12.793c9.157,5.938,14.395,14.245,14.395,22.801v50.824H223.334z   M109.961,408.333h292.065l2.202,7.956H107.751L109.961,408.333z M94.182,465.145l3.269-11.759h317.084l3.269,11.759H94.182z"/><text x="0" y="527" fill="#000000" font-size="5px" font-weight="bold" font-family="'Helvetica Neue', Helvetica, Arial-Unicode, Arial, Sans-serif">dsn</text><text x="0" y="532" fill="#000000" font-size="5px" font-weight="bold" font-family="'Helvetica Neue', Helvetica, Arial-Unicode, Arial, Sans-serif"></text></svg>